<svg width="112" height="112" viewBox="0 0 112 112" fill="none" xmlns="http://www.w3.org/2000/svg">
<rect x="2.25" y="2.25" width="107.5" height="107.5" rx="2.75" stroke="white" stroke-width="4.5"/>
<path d="M17.5 94C17.5 94.8284 18.1716 95.5 19 95.5L32.5 95.5C33.3284 95.5 34 94.8284 34 94C34 93.1716 33.3284 92.5 32.5 92.5L20.5 92.5L20.5 80.5C20.5 79.6716 19.8284 79 19 79C18.1716 79 17.5 79.6716 17.5 80.5L17.5 94ZM59.9393 50.9393L17.9393 92.9393L20.0607 95.0607L62.0607 53.0607L59.9393 50.9393Z" fill="white"/>
<path d="M95.5 19C95.5 18.1716 94.8284 17.5 94 17.5L80.5 17.5C79.6716 17.5 79 18.1716 79 19C79 19.8284 79.6716 20.5 80.5 20.5L92.5 20.5L92.5 32.5C92.5 33.3284 93.1716 34 94 34C94.8284 34 95.5 33.3284 95.5 32.5L95.5 19ZM53.0607 62.0607L95.0607 20.0607L92.9393 17.9393L50.9393 59.9393L53.0607 62.0607Z" fill="white"/>
</svg>
