<svg width="20" height="24" viewBox="0 0 20 24" fill="none" xmlns="http://www.w3.org/2000/svg">
<path fill-rule="evenodd" clip-rule="evenodd" d="M18.0731 12.9999C17.5395 13.1364 16.9715 13 16.4206 12.9999H16.5C16.5 14.4934 16.6482 15.5279 17.1394 16.9622L17.749 18.7908H1.9272V18.7711L2.5351 16.9425C3.01043 15.5166 3.2561 14.0243 3.26293 12.5213V8.90512C3.26293 7.98013 3.46009 7.0765 3.83304 6.25009C4.20599 5.4056 4.73667 4.65805 5.42507 4.04851C6.11348 3.4209 6.92017 2.94772 7.78437 2.67335C8.66829 2.37761 8.64365 2.40134 9.54728 2.49991V2.18539C9.84611 1.65045 10.0228 0.931603 10.4575 0.499756C10.0813 0.399568 10.8439 0.547259 10.4575 0.499756C9.31727 0.381462 8.35284 0.728077 7.25205 1.10103C6.15126 1.45427 5.14906 2.04409 4.30457 2.83107C3.45587 3.59776 2.77943 4.53571 2.31987 5.58304C1.85803 6.62997 1.61697 7.76086 1.61175 8.90512V12.5196C1.60934 13.8427 1.39695 15.157 0.982494 16.4135L0 19.3199L0.786981 20.401H6.54558C6.54558 21.2652 6.89881 22.1096 7.50835 22.7208C8.11625 23.3287 8.96238 23.6836 9.82822 23.6836C10.6924 23.6836 11.5369 23.3304 12.1464 22.7208C12.756 22.1113 13.1109 21.2652 13.1109 20.401H18.8695L19.6548 19.3199L18.692 16.4118C18.2762 15.1495 18.0011 14.329 18 12.9999H18.0731ZM9.82822 22.0751C10.0445 22.0736 10.2584 22.0293 10.4575 21.9447C10.6566 21.8601 10.8369 21.7369 10.9882 21.5822C11.1433 21.4328 11.2653 21.2525 11.3466 21.053C11.4278 20.8535 11.4663 20.6392 11.4597 20.424H8.17704C8.17704 20.8561 8.35284 21.2684 8.66829 21.5839C8.81975 21.7381 9.0002 21.8609 9.19925 21.9452C9.39831 22.0295 9.61206 22.0737 9.82822 22.0751Z" fill="black"/>
</svg>
