<svg width="112" height="112" viewBox="0 0 112 112" fill="none" xmlns="http://www.w3.org/2000/svg">
<path d="M93.3333 40.5V28C93.3333 20.3 87.0333 14 79.3333 14H32.6666C24.9666 14 18.6666 20.3 18.6666 28V40C13.4999 43.1667 9.49988 43.8 9.49988 51.5V74.6667C10.9999 81.5 14.3331 82 19.9999 84.2023V93C19.9999 95.5667 20.7666 98 23.3333 98C25.9 98 25.9999 95.5667 25.9999 93V84.2023H85.9999V93C85.9999 95.5667 86.1 98 88.6666 98C91.2333 98 90.9999 95.5667 90.9999 93V84.2023C97.1665 82 100.5 81.5 102.5 74.6667V51.3333C102.5 43.6333 101.033 40.5 93.3333 40.5ZM28 28C28 25.4333 30.1 23.3333 32.6666 23.3333H79.3333C81.8999 23.3333 83.9999 25.4333 83.9999 28V40.9733C82.9999 46 83.9999 47.2267 83.9999 51.3333V60.5H27.9999V51.182C27.9999 47.0753 29.4999 46.6667 28 40.9733V28ZM97.9999 74.6667C97.9999 77.2333 95.8999 79.3333 93.3333 79.3333H18.6666C16.1 79.3333 14 77.2333 14 74.6667L13.9999 51.5C13.9999 48.9333 16.1 46.6667 18.6666 46.6667C21.2333 46.6667 23.3333 48.7667 23.3333 51.3333L23.4999 65H88.6666V51.3333C88.6666 48.7667 90.7666 46.6667 93.3333 46.6667C95.8999 46.6667 97.9999 48.7667 97.9999 51.3333V74.6667Z" fill="white"/>
</svg>
