<svg width="112" height="112" viewBox="0 0 112 112" fill="none" xmlns="http://www.w3.org/2000/svg">
<path fill-rule="evenodd" clip-rule="evenodd" d="M56 107.5C84.4427 107.5 107.5 84.4427 107.5 56C107.5 27.5573 84.4427 4.5 56 4.5C27.5573 4.5 4.5 27.5573 4.5 56C4.5 84.4427 27.5573 107.5 56 107.5ZM56 112C86.9279 112 112 86.9279 112 56C112 25.0721 86.9279 0 56 0C25.0721 0 0 25.0721 0 56C0 86.9279 25.0721 112 56 112ZM74.6953 32L81.949 37.3277L55.4146 73.4538L55.417 73.4556L50.0817 80.7037L30.0001 65.9217L35.3353 58.6736L48.1665 68.1186L74.6953 32Z" fill="white"/>
</svg>
