<svg width="26" height="25" viewBox="0 0 26 25" fill="none" xmlns="http://www.w3.org/2000/svg">
<g clip-path="url(#clip0_150_11)">
<path d="M2.85424 9.55764L0.556152 11.7106L13.0562 0L25.5562 11.7106L23.2581 9.55763V15.4525V14.75V12.27V9.55763L13.0562 0L2.85424 9.55764Z" fill="#8F9091"/>
<path d="M18.9506 21.8175H15.1945V13.8613H11.7939V21.8175H3.29228L2.85424 9.55764M2.85424 9.55764L0.556152 11.7106L13.0562 0M2.85424 9.55764L13.0562 0M13.0562 0L25.5562 11.7106L23.2581 9.55763M13.0562 0L23.2581 9.55763M23.2581 9.55763V15.4525V14.75V12.27V9.55763ZM22.1915 21.8175H24.2061M22.1915 21.8175V25M22.1915 21.8175H20.2645M22.1915 21.8175V18" stroke="#8F9091"/>
</g>
<defs>
<clipPath id="clip0_150_11">
<rect width="25" height="25" fill="white" transform="translate(0.556152)"/>
</clipPath>
</defs>
</svg>
