<svg width="76" height="102" viewBox="0 0 76 102" fill="none" xmlns="http://www.w3.org/2000/svg">
<path fill-rule="evenodd" clip-rule="evenodd" d="M46.4969 0H5H4C3.86194 0 3.72549 0.00699615 3.59103 0.0206528C1.57401 0.225491 0 1.92893 0 4V5V97V97.5C0 99.7091 1.79086 101.5 4 101.5H72C74.2091 101.5 76 99.7091 76 97.5V97V25V24.8057L71 20.6017V20.7627L52.4 5H52.4438L46.8844 0.325775L46.5 0V0.00256587L46.4969 0ZM46.5 25H71V97H5V5H46.5V25ZM57 44H19V48.5H57V44ZM19 55H57V59.5H19V55ZM57 66H19V70.5H57V66Z" fill="white"/>
</svg>
