<svg width="31" height="31" viewBox="0 0 31 31" fill="none" xmlns="http://www.w3.org/2000/svg">
<path d="M28.1654 12.9703H27.125V12.9167H15.5V18.0834H22.7998C21.7349 21.091 18.8732 23.25 15.5 23.25C11.22 23.25 7.74998 19.78 7.74998 15.5C7.74998 11.2201 11.22 7.75004 15.5 7.75004C17.4756 7.75004 19.2729 8.49533 20.6415 9.71273L24.2949 6.05925C21.988 3.90927 18.9022 2.58337 15.5 2.58337C8.36675 2.58337 2.58331 8.36681 2.58331 15.5C2.58331 22.6333 8.36675 28.4167 15.5 28.4167C22.6332 28.4167 28.4166 22.6333 28.4166 15.5C28.4166 14.634 28.3275 13.7886 28.1654 12.9703Z" fill="#FFC107"/>
<path d="M4.07257 9.48798L8.31634 12.6002C9.46463 9.75729 12.2456 7.75004 15.4999 7.75004C17.4756 7.75004 19.2729 8.49533 20.6414 9.71273L24.2949 6.05925C21.988 3.90927 18.9022 2.58337 15.4999 2.58337C10.5387 2.58337 6.23611 5.38435 4.07257 9.48798Z" fill="#FF3D00"/>
<path d="M15.5 28.4167C18.8364 28.4167 21.868 27.1399 24.16 25.0636L20.1623 21.6807C18.8655 22.663 17.2535 23.2501 15.5 23.2501C12.1404 23.2501 9.28777 21.1078 8.2131 18.1183L4.00098 21.3636C6.13868 25.5467 10.48 28.4167 15.5 28.4167Z" fill="#4CAF50"/>
<path d="M28.1654 12.9702H27.125V12.9166H15.5V18.0833H22.7999C22.2884 19.528 21.359 20.7738 20.1603 21.6812C20.161 21.6806 20.1616 21.6806 20.1623 21.6799L24.16 25.0628C23.8771 25.3199 28.4167 21.9583 28.4167 15.5C28.4167 14.6339 28.3275 13.7885 28.1654 12.9702Z" fill="#1976D2"/>
</svg>
