<svg width="112" height="112" viewBox="0 0 112 112" fill="none" xmlns="http://www.w3.org/2000/svg">
<path d="M55.9164 2.36259C55.4463 2.3788 54.9933 2.54258 54.6214 2.83071L3.10143 43.0326C2.63266 43.3981 2.32829 43.9348 2.25527 44.5248C2.18224 45.1147 2.34656 45.7094 2.71206 46.1782C3.07756 46.647 3.61431 46.9514 4.20423 47.0244C4.79415 47.0974 5.38891 46.9331 5.85768 46.5676L8.95956 44.1482V103.04C8.95962 103.634 9.19564 104.204 9.61571 104.624C10.0358 105.044 10.6055 105.28 11.1996 105.28H42.1833C42.4252 105.32 42.672 105.32 42.9139 105.28H69.0633C69.3052 105.32 69.552 105.32 69.7939 105.28H100.8C101.394 105.28 101.963 105.044 102.383 104.624C102.803 104.204 103.04 103.634 103.04 103.04V44.1482L106.141 46.5676C106.374 46.7486 106.639 46.8821 106.923 46.9605C107.206 47.0389 107.503 47.0606 107.795 47.0245C108.087 46.9883 108.369 46.895 108.625 46.7498C108.881 46.6046 109.106 46.4104 109.287 46.1783C109.468 45.9462 109.602 45.6807 109.68 45.397C109.758 45.1133 109.78 44.8169 109.744 44.5248C109.708 44.2327 109.614 43.9505 109.469 43.6945C109.324 43.4385 109.13 43.2136 108.898 43.0326L91.8396 29.7238V13.4401H78.3996V19.2326L57.3777 2.83071C56.9609 2.50753 56.4434 2.34176 55.9164 2.36259ZM55.9996 7.44196L98.5596 40.6526V100.8H71.6796V58.2401H40.3196V100.8H13.4396V40.6526L55.9996 7.44196ZM82.8796 17.9201H87.3596V26.2282L82.8796 22.7282V17.9201ZM44.7996 62.7201H67.1996V100.8H44.7996V62.7201Z" fill="white"/>
</svg>
