<svg width="48" height="48" viewBox="0 0 48 48" fill="none" xmlns="http://www.w3.org/2000/svg">
<path d="M23.8125 13.125H20.8453C20.6906 13.125 20.5641 13.2516 20.5641 13.4062V29.3531H20.2969L9.25312 13.2469C9.20156 13.1719 9.1125 13.125 9.02344 13.125H5.90625C5.75156 13.125 5.625 13.2516 5.625 13.4062V35.1562C5.625 35.3109 5.75156 35.4375 5.90625 35.4375H8.84531C9 35.4375 9.12656 35.3109 9.12656 35.1562V18.9891H9.39375L20.5594 35.3156C20.6109 35.3906 20.7 35.4375 20.7938 35.4375H23.8125C23.9672 35.4375 24.0938 35.3109 24.0938 35.1562V13.4062C24.0938 13.2516 23.9672 13.125 23.8125 13.125ZM41.5312 32.4844H27.2812C27.075 32.4844 26.9062 32.6531 26.9062 32.8594V35.1094C26.9062 35.3156 27.075 35.4844 27.2812 35.4844H41.5312C41.7375 35.4844 41.9062 35.3156 41.9062 35.1094V32.8594C41.9062 32.6531 41.7375 32.4844 41.5312 32.4844ZM34.3969 29.5312C36.8766 29.5312 38.8594 28.725 40.3125 27.1078C41.6906 25.5656 42.375 23.5547 42.375 21.0703C42.375 18.5813 41.6906 16.5469 40.3125 15.0094C38.8641 13.3781 36.8812 12.5625 34.3969 12.5625C31.8797 12.5625 29.9016 13.3828 28.4766 15.0375C27.1078 16.5891 26.4422 18.5953 26.4422 21.0703C26.4422 23.5266 27.1125 25.5328 28.4812 27.0844C29.9156 28.7109 31.9031 29.5312 34.3969 29.5312V29.5312ZM31.0453 17.1703C31.8375 16.2047 32.9344 15.7219 34.3922 15.7219C35.8688 15.7219 36.9609 16.1719 37.7203 17.0859C38.4891 18.0375 38.8875 19.3641 38.8875 21.0656C38.8875 22.7672 38.4937 24.0703 37.725 24.9984C36.9516 25.9078 35.85 26.3672 34.3922 26.3672C32.9297 26.3672 31.8141 25.8844 31.0453 24.9422C30.2812 24 29.8969 22.725 29.8969 21.0703C29.9016 19.3922 30.2812 18.1172 31.0453 17.1703V17.1703Z" fill="black"/>
</svg>
