<svg width="112" height="112" viewBox="0 0 112 112" fill="none" xmlns="http://www.w3.org/2000/svg">
<path d="M56 37.3333C45.6867 37.3333 37.3333 45.6867 37.3333 56C37.3333 66.3133 45.6867 74.6667 56 74.6667C66.3133 74.6667 74.6667 66.3133 74.6667 56C74.6667 45.6867 66.3133 37.3333 56 37.3333ZM93 51.5002C88.6667 28.5 74.6667 23.3333 60.8334 19.0001V9.38672H51.5V19.0001C30 23.3333 20.5 37.3333 19 51.5H9.38667V60.8333H19C23.3333 78.5 31.5 88.6667 51.1667 93.0002V102.613H60.5V93.0002C81 89 91 74.6667 93 60.8335H102.613V51.5002H93ZM56 88.6667C37.94 88.6667 23.3333 74.06 23.3333 56C23.3333 37.94 37.94 23.3333 56 23.3333C74.06 23.3333 88.6667 37.94 88.6667 56C88.6667 74.06 74.06 88.6667 56 88.6667Z" fill="white"/>
</svg>
