<svg width="19" height="25" viewBox="0 0 19 25" fill="none" xmlns="http://www.w3.org/2000/svg">
<g clip-path="url(#clip0_456_72)">
<path d="M3.35355 3.85355L6.70711 0.5H18C18.2761 0.5 18.5 0.723858 18.5 1V24C18.5 24.2761 18.2761 24.5 18 24.5H1C0.723858 24.5 0.5 24.2761 0.5 24V6.70711L3.35355 3.85355Z" stroke="white"/>
<path d="M8 11V14H3V9H6" stroke="white"/>
<path d="M5.69822 12.9018L4.07322 10.7227C3.97559 10.5918 3.97559 10.3795 4.07322 10.2486L4.42677 9.77444C4.52439 9.64351 4.68269 9.64351 4.78032 9.77444L5.875 11.2424L8.21968 8.09819C8.31731 7.96727 8.47561 7.96727 8.57323 8.09819L8.92678 8.57231C9.02441 8.70322 9.02441 8.91549 8.92678 9.04642L6.05178 12.9018C5.95414 13.0327 5.79585 13.0327 5.69822 12.9018Z" fill="white"/>
<path d="M8 19V22H3V17H6" stroke="white"/>
<path d="M5.69822 20.9018L4.07322 18.7227C3.97559 18.5918 3.97559 18.3795 4.07322 18.2486L4.42677 17.7744C4.52439 17.6435 4.68269 17.6435 4.78032 17.7744L5.875 19.2424L8.21968 16.0982C8.31731 15.9673 8.47561 15.9673 8.57323 16.0982L8.92678 16.5723C9.02441 16.7032 9.02441 16.9155 8.92678 17.0464L6.05178 20.9018C5.95414 21.0327 5.79585 21.0327 5.69822 20.9018Z" fill="white"/>
<path d="M11 10H16" stroke="white" stroke-linecap="round"/>
<path d="M11 12H16" stroke="white" stroke-linecap="round"/>
<path d="M11 18H16" stroke="white" stroke-linecap="round"/>
<path d="M11 20H16" stroke="white" stroke-linecap="round"/>
</g>
<defs>
<clipPath id="clip0_456_72">
<rect width="19" height="25" fill="white"/>
</clipPath>
</defs>
</svg>
