<svg width="208" height="208" viewBox="0 0 208 208" fill="none" xmlns="http://www.w3.org/2000/svg">
<path d="M134.333 95.3333C141.513 95.3333 147.333 89.513 147.333 82.3333C147.333 75.1536 141.513 69.3333 134.333 69.3333C127.154 69.3333 121.333 75.1536 121.333 82.3333C121.333 89.513 127.154 95.3333 134.333 95.3333Z" fill="black"/>
<path d="M73.6665 95.3333C80.8462 95.3333 86.6665 89.513 86.6665 82.3333C86.6665 75.1536 80.8462 69.3333 73.6665 69.3333C66.4868 69.3333 60.6665 75.1536 60.6665 82.3333C60.6665 89.513 66.4868 95.3333 73.6665 95.3333Z" fill="black"/>
<path d="M103.913 17.3333C56.0735 17.3333 17.3335 56.16 17.3335 104C17.3335 151.84 56.0735 190.667 103.913 190.667C151.84 190.667 190.667 151.84 190.667 104C190.667 56.16 151.84 17.3333 103.913 17.3333ZM104 173.333C65.6935 173.333 34.6668 142.307 34.6668 104C34.6668 65.6933 65.6935 34.6666 104 34.6666C142.307 34.6666 173.334 65.6933 173.334 104C173.334 142.307 142.307 173.333 104 173.333Z" fill="black"/>
<rect x="72" y="130" width="64" height="10" fill="black"/>
</svg>
