<svg width="20" height="25" viewBox="0 0 20 25" fill="none" xmlns="http://www.w3.org/2000/svg">
<g clip-path="url(#clip0_150_94)">
<path d="M4.02201 3.85355L7.37556 0.5H18.6685C18.9446 0.5 19.1685 0.723858 19.1685 1V24C19.1685 24.2761 18.9446 24.5 18.6685 24.5H1.66846C1.39231 24.5 1.16846 24.2761 1.16846 24V6.70711L4.02201 3.85355Z" stroke="#818283"/>
<path d="M8.66846 11V14H3.66846V9H6.66846" stroke="#818283"/>
<path d="M6.36668 12.9018L4.74168 10.7227C4.64405 10.5918 4.64405 10.3795 4.74168 10.2486L5.09522 9.77444C5.19285 9.64351 5.35115 9.64351 5.44878 9.77444L6.54346 11.2424L8.88814 8.09819C8.98576 7.96727 9.14406 7.96727 9.24169 8.09819L9.59524 8.57231C9.69286 8.70322 9.69286 8.91549 9.59524 9.04642L6.72023 12.9018C6.6226 13.0327 6.46431 13.0327 6.36668 12.9018Z" fill="#818283"/>
<path d="M8.66846 19V22H3.66846V17H6.66846" stroke="#818283"/>
<path d="M6.36668 20.9018L4.74168 18.7227C4.64405 18.5918 4.64405 18.3795 4.74168 18.2486L5.09522 17.7744C5.19285 17.6435 5.35115 17.6435 5.44878 17.7744L6.54346 19.2424L8.88814 16.0982C8.98576 15.9673 9.14406 15.9673 9.24169 16.0982L9.59524 16.5723C9.69286 16.7032 9.69286 16.9155 9.59524 17.0464L6.72023 20.9018C6.6226 21.0327 6.46431 21.0327 6.36668 20.9018Z" fill="#818283"/>
<path d="M11.6685 10H16.6685" stroke="#818283" stroke-linecap="round"/>
<path d="M11.6685 12H16.6685" stroke="#818283" stroke-linecap="round"/>
<path d="M11.6685 18H16.6685" stroke="#818283" stroke-linecap="round"/>
<path d="M11.6685 20H16.6685" stroke="#818283" stroke-linecap="round"/>
</g>
<defs>
<clipPath id="clip0_150_94">
<rect width="19" height="25" fill="white" transform="translate(0.668457)"/>
</clipPath>
</defs>
</svg>
