<svg width="16" height="16" viewBox="0 0 16 16" fill="none" xmlns="http://www.w3.org/2000/svg">
<path d="M14 3.98671C11.78 3.76671 9.54667 3.65337 7.32 3.65337C6 3.65337 4.68 3.72004 3.36 3.85337L2 3.98671M5.66667 3.31337L5.81333 2.44004C5.92 1.80671 6 1.33337 7.12667 1.33337H8.87333C10 1.33337 10.0867 1.83337 10.1867 2.44671L10.3333 3.31337M12.5667 6.09337L12.1333 12.8067C12.06 13.8534 12 14.6667 10.14 14.6667H5.86C4 14.6667 3.94 13.8534 3.86667 12.8067L3.43333 6.09337M6.88667 11H9.10667M6.33333 8.33337H9.66667" stroke="#A60000" stroke-width="1.5" stroke-linecap="round" stroke-linejoin="round"/>
</svg>
